<svg xmlns="http://www.w3.org/2000/svg" width="174.869" height="174.868"><path d="M157.721 92.021c-.938 0-10.802 1.882-11.277.944 0 0 9.864-11.521.231-25.849 0 0-3.525-10.345 5.176-16.696 0 0-3.057 7.757.451 10.577 0 0 2.229 2.935-1.413 5.882 0 0-3.642 3.641 2.229 7.161 0 0 3.525 1.882 6.576-5.992l15.175-24.442s-24.612-29.045-54.291-.938c-5.73 5.425-14.578 15.515-15.047 27.736 0 0-47.711-6.345-57.113 7.52 0 0-16.688-21.391-34.55-10.808 0 0-9.404 2.813-13.868-4.238 0 0 .155 18.779 19.966 16.721.387-.049.785-.098 1.184-.146 20.914-2.819 15.394 13.281 27.149 8.817 0 0 16.105 17.865-.594 17.865-.935 0-22.561 38.319-22.561 38.319h26.327s0-6.589-6.348-9.87c0 0-7.52-1.888 5.639-16.222 0 0 3.042 1.15 7.319 1.376-5.057 8.787-9.67 16.965-9.67 16.965h26.33s0-6.576-6.354-9.871c0 0-4.652-1.169-.204-8.665 3.072-1.242 6.147-3.343 8.829-6.74 3.982.821 11.305 1.442 17.899-2.813 8.421 3.775 19.948 6.887 31.305 3.185l-20.21 32.431h26.092s.243-5.4-6.582-11.283c0 0-3.77-.7 4.475-12.689l7.746-12.695s13.433-7.795 19.083-4.477c.231.141.463.299.664.476 5.17 4.463-3.051 7.051-5.401 4.938l-.938 21.859s12.215-5.17 13.64-18.328c-.013-.032 11.776-20.01-7.064-20.01z"/></svg>